<svg width="34" height="38" viewBox="0 0 34 38" fill="none" xmlns="http://www.w3.org/2000/svg">
<g opacity="0.5">
<path fill-rule="evenodd" clip-rule="evenodd" d="M17.0772 24.4466C23.8279 24.4466 29.3005 18.9741 29.3005 12.2233C29.3005 5.47257 23.8279 0 17.0772 0C10.3264 0 4.85386 5.47257 4.85386 12.2233C4.85386 18.9741 10.3264 24.4466 17.0772 24.4466ZM26.4349 12.2233C26.4349 17.3915 22.2453 21.5811 17.0772 21.5811C11.909 21.5811 7.7194 17.3915 7.7194 12.2233C7.7194 7.05516 11.909 2.86554 17.0772 2.86554C22.2453 2.86554 26.4349 7.05516 26.4349 12.2233ZM2.73488 37.3287L2.73221 37.3313L0.732422 35.2192C2.28214 33.7519 4.00938 32.5139 5.86151 31.5262C9.28857 29.6986 13.1432 28.7276 17.0921 28.7453C21.041 28.7629 24.8869 29.7683 28.2975 31.6265C30.1401 32.6304 31.8557 33.8833 33.3919 35.3638L33.3933 35.3652L31.3747 37.4593C27.5339 33.757 22.4138 31.6777 17.0791 31.6538C11.7457 31.63 6.60832 33.6625 2.73488 37.3287Z" fill="white"/>
</g>
</svg>
